<?xml version="1.0" standalone="no"?><!DOCTYPE svg PUBLIC "-//W3C//DTD SVG 1.1//EN" "http://www.w3.org/Graphics/SVG/1.1/DTD/svg11.dtd"><svg width="100%" height="100%" viewBox="0 0 2422 800" version="1.1" xmlns="http://www.w3.org/2000/svg" xmlns:xlink="http://www.w3.org/1999/xlink" xml:space="preserve" style="fill-rule:evenodd;clip-rule:evenodd;stroke-linejoin:round;stroke-miterlimit:1.41421;"><g id="Ebene 1"><clipPath id="_clip1"><rect x="141.983" y="108.793" width="2279.16" height="604.326"/></clipPath><g clip-path="url(#_clip1)"><g transform="matrix(1,0,0,1,-9.95151,-13.6131)"><g transform="matrix(1.62052,0,0,1,-274.27,0)"><text x="442.001px" y="678.567px" style="font-family:Dolce Vita Light;font-size:305.873px;fill:#393;">r</text></g><g transform="matrix(1.62052,0,0,1,-429.26,0)"><text x="691.774px" y="678.567px" style="font-family:Dolce Vita Light;font-size:305.873px;fill:#393;">e</text></g><g transform="matrix(1.62052,0,0,1,-560.07,0)"><text x="902.582px" y="678.567px" style="font-family:Dolce Vita Light;font-size:305.873px;fill:#393;">ew<tspan x="1230.41px " y="678.567px ">a</tspan></text></g><g transform="matrix(1.62052,0,0,1,-1060.78,0)"><text x="1709.5px" y="678.567px" style="font-family:Dolce Vita Light;font-size:305.873px;fill:#393;">t</text></g><g transform="matrix(1.62052,0,0,1,-1169.07,0)"><text x="1884.01px" y="678.567px" style="font-family:Dolce Vita Light;font-size:305.873px;fill:#393;">c</text></g><g transform="matrix(1.62052,0,0,1,-1331.31,0)"><text x="2145.48px" y="678.567px" style="font-family:Dolce Vita Light;font-size:305.873px;fill:#393;">h</text></g></g><path d="M358.081,229.023c-1.363,0.027 -2.667,0.676 -3.335,1.78c0,0 -23.986,39.858 -43.637,105.084c-4.973,16.273 -9.359,34.14 -13.462,53.256c-14,65.174 -10.848,132.49 8.713,196.547c1.041,3.398 2.142,6.785 3.269,10.168c4.114,12.312 8.674,24.523 13.253,36.718c0.883,2.325 10.643,33.044 12.267,33.044c27.047,0 54.107,-0.005 81.149,0c-23.251,-44.253 -51.65,-86.651 -66.227,-133.8c-6.187,-19.98 -10.501,-40.37 -13.198,-60.888c-2.051,-15.562 -3.234,-31.207 -3.66,-46.862c-0.789,-28.036 0.867,-56.171 4.467,-84.042c4.191,-32.336 10.774,-59.055 15.48,-77.751c4.871,-18.661 8.648,-29.088 8.648,-29.088c0.531,-1.477 -0.269,-3.111 -1.948,-3.83c-0.518,-0.216 -1.063,-0.325 -1.606,-0.336l-0.173,0Z" style="fill:url(#_Radial2);fill-rule:nonzero;"/><clipPath id="_clip3"><path d="M408.765,301.46c-33.172,10.276 -51.74,30.6 -53.205,53.308c34.139,11.685 74.098,13.88 107.268,3.611c33.171,-10.278 51.742,-30.6 53.212,-53.31c-10.527,-3.604 -21.609,-6.305 -32.869,-8.016c-9.395,-1.427 -18.922,-2.166 -28.357,-2.166c-15.943,-0.001 -31.635,2.109 -46.049,6.573Z"/></clipPath><g clip-path="url(#_clip3)"><path d="M402.148,266.053l-57.978,84.813l125.28,42.916l57.978,-84.812l-125.28,-42.917Z" style="fill:url(#_Linear4);fill-rule:nonzero;"/></g><clipPath id="_clip5"><path d="M184.256,296.476c27.52,23.224 68.302,36.759 108.254,38.597c10.415,-23.096 2.619,-50.547 -24.901,-73.775c-22.495,-18.984 -53.833,-31.492 -86.344,-36.431c-7.27,-1.105 -14.605,-1.831 -21.905,-2.166c-10.413,23.091 -2.618,50.544 24.896,73.775Z"/></clipPath><g clip-path="url(#_clip5)"><path d="M162.241,216.322l-37.677,83.425l164.467,43.03l37.677,-83.424l-164.467,-43.031Z" style="fill:url(#_Linear6);fill-rule:nonzero;"/></g><clipPath id="_clip7"><path d="M388.047,225.681c-19.636,17.017 -21.91,39.518 -9.465,60.082c33.573,2.313 65.971,-5.208 85.623,-22.218c19.647,-17.018 21.901,-39.52 9.452,-60.082c-3.952,-0.271 -7.89,-0.407 -11.791,-0.407c-29.22,0 -56.49,7.616 -73.819,22.625Z"/></clipPath><g clip-path="url(#_clip7)"><path d="M395.381,182.983l-43.289,95.849l104.788,27.417l43.289,-95.85l-104.788,-27.416Z" style="fill:url(#_Linear8);fill-rule:nonzero;"/></g><clipPath id="_clip9"><path d="M495.292,251.413c-17.82,7.437 -26.278,20.189 -24.755,33.633c20.698,5.478 43.697,5.125 61.528,-2.309c17.842,-7.427 26.283,-20.18 24.734,-33.63c-3.896,-1.033 -7.878,-1.859 -11.888,-2.469c-5.525,-0.84 -11.113,-1.27 -16.631,-1.27c-11.73,-0.001 -23.148,1.946 -32.988,6.045Z"/></clipPath><g clip-path="url(#_clip9)"><path d="M492.284,229.828l-29.472,52.909l72.266,21.595l29.472,-52.909l-72.266,-21.595Z" style="fill:url(#_Linear10);fill-rule:nonzero;"/></g><clipPath id="_clip11"><path d="M177.17,203.668c14.227,12.624 35.801,20.227 57.209,21.598c6.161,-12.213 2.642,-26.901 -11.59,-39.541c-12.038,-10.709 -29.369,-17.796 -47.399,-20.536c-3.252,-0.494 -6.526,-0.847 -9.797,-1.053c-6.175,12.188 -2.641,26.893 11.577,39.532Z"/></clipPath><g clip-path="url(#_clip11)"><path d="M164.311,161.571l-15.985,48.204l87,19.003l15.985,-48.205l-87,-19.002Z" style="fill:url(#_Linear12);fill-rule:nonzero;"/></g><clipPath id="_clip13"><path d="M301.188,150.691c2.518,9.196 11.901,17.212 24.16,21.986c9.592,-5.098 14.536,-13.313 12.038,-22.507c-2.511,-9.199 -11.886,-17.211 -24.163,-21.984c-9.598,5.084 -14.536,13.309 -12.035,22.505Z"/></clipPath><g clip-path="url(#_clip13)"><path d="M305.599,126.191l-16.689,36.952l44.061,11.528l16.689,-36.952l-44.061,-11.528Z" style="fill:url(#_Linear14);fill-rule:nonzero;"/></g><clipPath id="_clip15"><path d="M431.583,171.296c-9.64,5.924 -12.69,14.663 -9.542,23.171c13.531,2.159 27.5,0.428 37.144,-5.498c9.656,-5.924 12.717,-14.65 9.542,-23.172c-0.19,-0.029 -0.382,-0.061 -0.573,-0.09c-3.516,-0.534 -7.063,-0.803 -10.551,-0.803c-9.727,-0.001 -19.011,2.095 -26.02,6.392Z"/></clipPath><g clip-path="url(#_clip15)"><path d="M431.501,156.057l-16.513,36.564l44.294,11.59l16.514,-36.565l-44.295,-11.589Z" style="fill:url(#_Linear16);fill-rule:nonzero;"/></g><clipPath id="_clip17"><path d="M347.598,169.082c-7.351,14.667 -1.577,31.038 13.201,44.138c22.69,-2.639 41.455,-12.152 48.821,-26.818c7.346,-14.671 1.561,-31.038 -13.222,-44.142c-22.683,2.639 -41.445,12.153 -48.8,26.822Z"/></clipPath><g clip-path="url(#_clip17)"><path d="M362.939,133.506l-32.423,71.791l63.757,16.681l32.423,-71.791l-63.757,-16.681Z" style="fill:url(#_Linear18);fill-rule:nonzero;"/></g><clipPath id="_clip19"><path d="M-9.952,-13.613l0,503.081l729.754,110.884l70.246,-462.315l0,-45.674l-697.455,-105.976l-102.545,0Z"/></clipPath><g clip-path="url(#_clip19)"><g><clipPath id="_clip20"><rect x="154.929" y="164.136" width="137.582" height="170.937"/></clipPath><g clip-path="url(#_clip20)"><g opacity="0.300003"><clipPath id="_clip21"><path d="M184.256,296.476c27.52,23.224 68.3,36.759 108.254,38.597l-133.15,-112.372c-10.413,23.091 -2.619,50.543 24.896,73.775Z"/></clipPath><g clip-path="url(#_clip21)"><path d="M159.36,222.701l-34.796,77.046l164.467,43.031l34.796,-77.046l-164.467,-43.031Z" style="fill:url(#_Linear22);fill-rule:nonzero;"/></g><clipPath id="_clip23"><path d="M162.996,172.111l-0.042,0.269c-1.498,10.229 3.084,21.392 14.217,31.288c14.226,12.624 35.8,20.227 57.208,21.598l-68.786,-61.13c-1.298,2.561 -2.166,5.234 -2.597,7.975Z"/></clipPath><g clip-path="url(#_clip23)"><path d="M165.467,164.103l-19.13,42.358l86.334,22.588l19.13,-42.358l-86.334,-22.588Z" style="fill:url(#_Linear24);fill-rule:nonzero;"/></g></g></g></g><g><clipPath id="_clip25"><rect x="300.544" y="128.186" width="256.436" height="236.763"/></clipPath><g clip-path="url(#_clip25)"><g opacity="0.300003"><clipPath id="_clip26"><path d="M355.56,354.768c34.139,11.685 74.098,13.88 107.268,3.611c33.172,-10.278 51.741,-30.6 53.212,-53.31l-160.48,49.699Z"/></clipPath><g clip-path="url(#_clip26)"><path d="M392.593,272.77l-38.144,84.46l131.304,34.354l38.145,-84.459l-131.305,-34.355Z" style="fill:url(#_Linear27);fill-rule:nonzero;"/></g><clipPath id="_clip28"><path d="M378.582,285.763l0.001,0c33.574,2.312 65.97,-5.208 85.622,-22.218c19.649,-17.018 21.901,-39.521 9.452,-60.081l-95.075,82.299Z"/></clipPath><g clip-path="url(#_clip28)"><path d="M421.87,189.914l-43.288,95.849l78.3,20.486l43.288,-95.848l-78.3,-20.487Z" style="fill:url(#_Linear29);fill-rule:nonzero;"/></g><clipPath id="_clip30"><path d="M470.537,285.046c20.697,5.478 43.697,5.125 61.528,-2.309c17.842,-7.427 26.283,-20.18 24.734,-33.63l-86.262,35.939Z"/></clipPath><g clip-path="url(#_clip30)"><path d="M494.169,232.72l-23.657,52.382l69.448,18.17l23.657,-52.381l-69.448,-18.171Z" style="fill:url(#_Linear31);fill-rule:nonzero;"/></g><clipPath id="_clip32"><path d="M300.737,143.483l-0.016,0.103c-0.338,2.272 -0.2,4.654 0.467,7.105c2.518,9.196 11.9,17.21 24.159,21.987l0.001,-0.002l-12.126,-44.49c-7,3.708 -11.522,9.088 -12.485,15.297Z"/></clipPath><g clip-path="url(#_clip32)"><path d="M306.589,126.45l-16.689,36.953l35.448,9.275l16.689,-36.953l-35.448,-9.275Z" style="fill:url(#_Linear33);fill-rule:nonzero;"/></g><clipPath id="_clip34"><path d="M422.041,194.467c13.53,2.159 27.5,0.428 37.144,-5.498c9.656,-5.924 12.717,-14.65 9.542,-23.172l-46.686,28.67Z"/></clipPath><g clip-path="url(#_clip34)"><path d="M438.555,157.903l-16.514,36.564l37.241,9.744l16.514,-36.565l-37.241,-9.743Z" style="fill:url(#_Linear35);fill-rule:nonzero;"/></g><clipPath id="_clip36"><path d="M360.8,213.22c22.689,-2.639 41.454,-12.152 48.82,-26.818c7.346,-14.671 1.561,-31.038 -13.222,-44.141l-35.598,70.959Z"/></clipPath><g clip-path="url(#_clip36)"><path d="M393.223,141.43l-32.423,71.79l33.474,8.758l32.422,-71.79l-33.473,-8.758Z" style="fill:url(#_Linear37);fill-rule:nonzero;"/></g></g></g></g></g><clipPath id="_clip38"><path d="M248.504,211.74c9.559,21.181 34.183,38.446 64.02,47.625c19.646,-13.554 27.437,-33.677 17.887,-54.865c-9.559,-21.182 -34.196,-38.438 -64.059,-47.621c-19.63,13.55 -27.414,33.673 -17.848,54.861Z"/></clipPath><g clip-path="url(#_clip38)"><path d="M254.27,153.718l-36.515,80.851l106.865,27.961l36.515,-80.852l-106.865,-27.96Z" style="fill:url(#_Linear39);fill-rule:nonzero;"/></g><clipPath id="_clip40"><path d="M-9.952,-13.613l0,503.081l729.754,110.884l70.246,-462.315l0,-45.674l-697.455,-105.976l-102.545,0Z"/></clipPath><g clip-path="url(#_clip40)"><g><clipPath id="_clip41"><rect x="244.425" y="156.88" width="68.099" height="102.485"/></clipPath><g clip-path="url(#_clip41)"><g opacity="0.300003"><clipPath id="_clip42"><path d="M244.874,187.941l-0.039,0.255c-1.111,7.487 0.009,15.437 3.67,23.544c9.558,21.181 34.181,38.446 64.019,47.625l-46.171,-102.485c-12.035,8.306 -19.617,19.083 -21.479,31.061Z"/></clipPath><g clip-path="url(#_clip42)"><path d="M256.517,154.306l-36.514,80.852l92.521,24.207l36.515,-80.851l-92.522,-24.208Z" style="fill:url(#_Linear43);fill-rule:nonzero;"/></g></g></g></g></g></g></g><defs><radialGradient id="_Radial2" cx="0" cy="0" r="1" gradientUnits="userSpaceOnUse" gradientTransform="matrix(1031.98,0,0,-873.699,331.236,239.469)"><stop offset="0%" style="stop-color:#914a10;stop-opacity:1"/><stop offset="100%" style="stop-color:#301603;stop-opacity:1"/></radialGradient><linearGradient id="_Linear4" x1="0" y1="0" x2="1" y2="0" gradientUnits="userSpaceOnUse" gradientTransform="matrix(-173.54,253.86,434.279,148.769,557.736,152.219)"><stop offset="0%" style="stop-color:#a0d007;stop-opacity:1"/><stop offset="100%" style="stop-color:#2b8a00;stop-opacity:1"/></linearGradient><linearGradient id="_Linear6" x1="0" y1="0" x2="1" y2="0" gradientUnits="userSpaceOnUse" gradientTransform="matrix(-121.706,269.483,451.561,118.146,312.486,88.2189)"><stop offset="0%" style="stop-color:#a0d007;stop-opacity:1"/><stop offset="100%" style="stop-color:#2b8a00;stop-opacity:1"/></linearGradient><linearGradient id="_Linear8" x1="0" y1="0" x2="1" y2="0" gradientUnits="userSpaceOnUse" gradientTransform="matrix(-114.73,254.036,425.678,111.374,473.236,140.219)"><stop offset="0%" style="stop-color:#a0d007;stop-opacity:1"/><stop offset="100%" style="stop-color:#2b8a00;stop-opacity:1"/></linearGradient><linearGradient id="_Linear10" x1="0" y1="0" x2="1" y2="0" gradientUnits="userSpaceOnUse" gradientTransform="matrix(-146.277,262.596,444.203,132.74,568.486,169.219)"><stop offset="0%" style="stop-color:#a0d007;stop-opacity:1"/><stop offset="100%" style="stop-color:#2b8a00;stop-opacity:1"/></linearGradient><linearGradient id="_Linear12" x1="0" y1="0" x2="1" y2="0" gradientUnits="userSpaceOnUse" gradientTransform="matrix(-91.7415,276.663,458.578,100.164,241.736,69.4689)"><stop offset="0%" style="stop-color:#a0d007;stop-opacity:1"/><stop offset="100%" style="stop-color:#2b8a00;stop-opacity:1"/></linearGradient><linearGradient id="_Linear14" x1="0" y1="0" x2="1" y2="0" gradientUnits="userSpaceOnUse" gradientTransform="matrix(-122.076,270.301,452.933,118.505,343.486,97.2189)"><stop offset="0%" style="stop-color:#a0d007;stop-opacity:1"/><stop offset="100%" style="stop-color:#2b8a00;stop-opacity:1"/></linearGradient><linearGradient id="_Linear16" x1="0" y1="0" x2="1" y2="0" gradientUnits="userSpaceOnUse" gradientTransform="matrix(-121.705,269.48,451.558,118.145,467.986,129.219)"><stop offset="0%" style="stop-color:#a0d007;stop-opacity:1"/><stop offset="100%" style="stop-color:#2b8a00;stop-opacity:1"/></linearGradient><linearGradient id="_Linear18" x1="0" y1="0" x2="1" y2="0" gradientUnits="userSpaceOnUse" gradientTransform="matrix(-121.912,269.94,452.328,118.347,408.486,112.469)"><stop offset="0%" style="stop-color:#a0d007;stop-opacity:1"/><stop offset="100%" style="stop-color:#2b8a00;stop-opacity:1"/></linearGradient><linearGradient id="_Linear22" x1="0" y1="0" x2="1" y2="0" gradientUnits="userSpaceOnUse" gradientTransform="matrix(-201.901,447.051,749.105,195.995,314.736,77.4689)"><stop offset="0%" style="stop-color:#a0d007;stop-opacity:1"/><stop offset="100%" style="stop-color:#2b8a00;stop-opacity:1"/></linearGradient><linearGradient id="_Linear24" x1="0" y1="0" x2="1" y2="0" gradientUnits="userSpaceOnUse" gradientTransform="matrix(-111.062,245.916,412.071,107.814,247.986,83.7189)"><stop offset="0%" style="stop-color:#a0d007;stop-opacity:1"/><stop offset="100%" style="stop-color:#2b8a00;stop-opacity:1"/></linearGradient><linearGradient id="_Linear27" x1="0" y1="0" x2="1" y2="0" gradientUnits="userSpaceOnUse" gradientTransform="matrix(-139.792,309.528,518.664,135.703,471.736,255.969)"><stop offset="0%" style="stop-color:#a0d007;stop-opacity:1"/><stop offset="100%" style="stop-color:#2b8a00;stop-opacity:1"/></linearGradient><linearGradient id="_Linear29" x1="0" y1="0" x2="1" y2="0" gradientUnits="userSpaceOnUse" gradientTransform="matrix(-162.488,359.784,602.875,157.736,474.486,159.219)"><stop offset="0%" style="stop-color:#a0d007;stop-opacity:1"/><stop offset="100%" style="stop-color:#2b8a00;stop-opacity:1"/></linearGradient><linearGradient id="_Linear31" x1="0" y1="0" x2="1" y2="0" gradientUnits="userSpaceOnUse" gradientTransform="matrix(-88.7073,196.417,329.128,86.1126,537.736,220.219)"><stop offset="0%" style="stop-color:#a0d007;stop-opacity:1"/><stop offset="100%" style="stop-color:#2b8a00;stop-opacity:1"/></linearGradient><linearGradient id="_Linear33" x1="0" y1="0" x2="1" y2="0" gradientUnits="userSpaceOnUse" gradientTransform="matrix(-62.7449,138.93,232.8,60.9096,328.736,115.094)"><stop offset="0%" style="stop-color:#a0d007;stop-opacity:1"/><stop offset="100%" style="stop-color:#2b8a00;stop-opacity:1"/></linearGradient><linearGradient id="_Linear35" x1="0" y1="0" x2="1" y2="0" gradientUnits="userSpaceOnUse" gradientTransform="matrix(-62.099,137.5,230.404,60.2827,462.236,147.469)"><stop offset="0%" style="stop-color:#a0d007;stop-opacity:1"/><stop offset="100%" style="stop-color:#2b8a00;stop-opacity:1"/></linearGradient><linearGradient id="_Linear37" x1="0" y1="0" x2="1" y2="0" gradientUnits="userSpaceOnUse" gradientTransform="matrix(-121.92,269.956,452.355,118.354,419.986,115.219)"><stop offset="0%" style="stop-color:#a0d007;stop-opacity:1"/><stop offset="100%" style="stop-color:#2b8a00;stop-opacity:1"/></linearGradient><linearGradient id="_Linear39" x1="0" y1="0" x2="1" y2="0" gradientUnits="userSpaceOnUse" gradientTransform="matrix(-121.701,269.472,451.544,118.142,340.236,94.7189)"><stop offset="0%" style="stop-color:#a0d007;stop-opacity:1"/><stop offset="100%" style="stop-color:#2b8a00;stop-opacity:1"/></linearGradient><linearGradient id="_Linear43" x1="0" y1="0" x2="1" y2="0" gradientUnits="userSpaceOnUse" gradientTransform="matrix(-121.702,269.473,451.545,118.142,329.486,91.9689)"><stop offset="0%" style="stop-color:#a0d007;stop-opacity:1"/><stop offset="100%" style="stop-color:#2b8a00;stop-opacity:1"/></linearGradient></defs></svg>