<?xml version="1.0" encoding="utf-8"?>
<!-- Generator: Adobe Illustrator 19.0.0, SVG Export Plug-In . SVG Version: 6.00 Build 0)  -->
<svg version="1.1" id="Layer_1" xmlns="http://www.w3.org/2000/svg" xmlns:xlink="http://www.w3.org/1999/xlink" x="0px" y="0px"
	 viewBox="56.8 196.5 467.7 182.7" style="enable-background:new 56.8 196.5 467.7 182.7;" xml:space="preserve">
<style type="text/css">
	.st0{fill:#006633;}
	.st1{fill:#6FBA71;}
	.st2{fill:#01A75F;}
	.st3{fill:#936037;}
	.st4{fill:none;}
</style>
<path class="st0" d="M439.2,256.7c-1.8-0.9-3.6-1.7-5.4-2.6c-6-3-11.9-2.6-17.8,0.6c-6.7,3.8-13.4,7.5-20.2,11.1
	c-6.1,3.3-12.6,5.3-19.6,4.3c-2.6-0.4-5.2-1.5-7.4-2.7c-2-1.1,11.3-10.5,17.2-13.2c5.7-2.6,11.8-4.5,17.7-6.7
	c-13.1,0.7-25.9,2.4-36,12.4c-4.7,4.7-8,8.6-10.4,14.2c-1.1,0.9-1.3,1-2.6,1.9c0.5-1.2,4-10.8,7.3-15.6c0.5-0.8,1.1-1.7,1.2-2.6
	c0.5-7.2,4.6-11.8,10.5-15.4c9-5.5,18.9-6.3,29-5c7,0.9,13.8,2.6,20.2,5.6c6.2,2.9,11.7,6.9,16,12.3c0.3,0.3,0.4,0.7,0.7,1.1
	C439.4,256.5,439.3,256.6,439.2,256.7z"/>
<path class="st1" d="M297.5,275.9c0.5-0.6,1-1.2,1.5-1.8c1.7-2.1,3.9-2.9,6.6-2.7c3.1,0.2,6.1,0.5,9.2,0.7c2.8,0.2,5.5-0.2,7.8-1.7
	c0.9-0.6,1.6-1.4,2.2-2.2c0.6-0.8-5.8-1.9-8.4-1.9c-2.5,0-5,0.3-7.5,0.5c4.9-1.9,9.8-3.4,15.1-1.5c5.2,1.9,8.8,5.3,11,10.3
	c-0.7-2.3-1.8-4.4-3.3-6.3c-1.6-1.9-3.4-3.5-5.6-4.8c-0.3-0.2-0.7-0.4-0.9-0.7c-1.4-2.5-3.7-3.5-6.4-3.8c-4.2-0.5-7.9,0.9-11.4,3
	c-2.4,1.5-4.6,3.2-6.4,5.4c-1.8,2.1-3.1,4.4-3.8,7.1c0,0.2,0,0.3-0.1,0.5C297.3,275.8,297.4,275.9,297.5,275.9z"/>
<path class="st2" d="M342.7,253.6c3.8-10.9,4-21.2-1.5-31.3c3.5,11.1,1.5,21.7-2.6,32.7c-1.5-1.5-2.8-2.6-3.8-3.9
	c-4.6-5.4-7.9-11.5-9.8-18.4c-1.6-5.6-0.1-10.8,2.5-15.8c0.4-0.8,0.9-1.7,1.4-2.5c1.6-2.5,2-5.2,1.2-8.1c-0.1-0.4-0.3-0.9-0.5-1.3
	c0.2-0.1,0.4-0.2,0.5-0.3c0.9,0.4,1.8,0.7,2.7,1.1c12,5.3,18.3,14.8,19.8,27.6c0.2,1.9-0.2,4-0.8,5.9
	C350.6,243.4,346.1,250.2,342.7,253.6z"/>
<g>
	<path class="st3" d="M362.6,330.5l-10.2-27.2h-15.6v-1.5h15l-15-40.1c-0.1-0.1-0.2-0.5-0.1-0.7c0,0,0.1-0.2,0.4-0.3
		c0.1-0.1,0.3-0.1,0.4-0.1c0.4,0,0.6,0.6,0.6,0.6l25.8,69.3L362.6,330.5L362.6,330.5z"/>
	<polygon class="st3" points="87.1,312.4 87.1,287.8 78,287.8 78,286.6 97.6,286.6 97.6,287.8 88.5,287.8 88.5,312.4 	"/>
	<path class="st3" d="M143.1,301c0.4,0.1,0.7,0.4,1.1,0.7c0.4,0.3,0.7,0.7,0.9,1.1c0.2,0.4,0.4,0.9,0.5,1.4c0.1,0.5,0.1,1.1,0.1,1.6
		v4.1c0,0.7,0.1,1.3,0.3,1.9c0.1,0.2,0.1,0.4,0.2,0.6h-1.6c0-0.1,0-0.1-0.1-0.2c-0.1-0.2-0.1-0.5-0.1-0.7c0-0.3-0.1-0.5-0.1-0.8
		c0-0.3,0-0.5,0-0.7v-4.3c0-0.6-0.1-1.2-0.3-1.8c-0.2-0.6-0.6-1.2-1-1.6c-0.5-0.5-0.6-0.7-1.3-1L143.1,301z M138.5,300.7
		c-2.2,0-9,0-9,0v11.7H128v-25.8h10.4c1.2,0,2.3,0.2,3.2,0.6c0.9,0.4,1.7,1,2.4,1.6c0.6,0.7,1.1,1.4,1.4,2.3
		c0.3,0.8,0.5,1.7,0.5,2.5c0,0.6-0.1,1.2-0.2,1.8c-0.1,0.6-0.4,1.1-0.7,1.7c-0.3,0.5-0.7,1-1.1,1.5c-0.4,0.4-0.9,0.8-1.5,1.1
		c0,0-0.9,0.5-1.4,0.7C140.6,300.6,139.7,300.7,138.5,300.7z M129.5,299.6h9c0.8,0,1.6-0.2,2.3-0.5c0.7-0.3,1.4-0.7,1.9-1.3
		c0.6-0.5,1-1.2,1.3-1.9c0.3-0.7,0.5-1.5,0.5-2.4c0-0.8-0.2-1.6-0.5-2.3c-0.3-0.7-0.7-1.3-1.3-1.8c-0.5-0.5-1.2-0.9-1.9-1.2
		c-0.7-0.3-1.5-0.4-2.4-0.4h-9L129.5,299.6L129.5,299.6z"/>
	<polygon class="st3" points="176.8,294.1 176.8,286.6 193.6,286.6 193.6,287.8 178.3,287.8 178.3,294.1 	"/>
	<polygon class="st3" points="176.8,312.4 176.8,298.5 192.7,298.5 192.7,299.6 178.3,299.6 178.3,311.2 194.3,311.2 194.3,312.4 	
		"/>
	<polygon class="st3" points="224.7,294.1 224.7,286.6 241.5,286.6 241.5,287.8 226.2,287.8 226.2,294.1 	"/>
	<polygon class="st3" points="224.7,312.4 224.7,298.5 240.6,298.5 240.6,299.6 226.2,299.6 226.2,311.2 242.2,311.2 242.2,312.4 	
		"/>
	<path class="st3" d="M293.4,312.4l-7.3-24.6l-7.3,24.6H277l-6.5-25.8h1.5l5.9,24.1l7.4-24.1h1.7l7.3,23.9l0.6-2.6
		c0.9-3.6,1.8-7.3,2.8-10.9c0.9-3.5,1.8-7,2.6-10.4h1.5l-6.5,25.8H293.4z"/>
	<polygon class="st3" points="390.3,312.4 390.3,287.8 381.3,287.8 381.3,286.6 400.8,286.6 400.8,287.8 391.8,287.8 391.8,312.4 	
		"/>
	<path class="st3" d="M442.8,313.2c-1.8,0-3.4-0.3-4.8-0.9c-1.4-0.6-2.6-1.5-3.6-2.7c-1-1.2-1.8-2.7-2.3-4.4c-0.6-1.8-0.8-3.8-0.8-6
		c0-1.1,0.1-2.3,0.4-3.4c0.2-1.1,0.6-2.2,1-3.1c0.5-1,1-1.9,1.7-2.7c0.6-0.8,1.4-1.5,2.2-2.1c0.8-0.6,1.8-1.1,2.8-1.4
		c1-0.3,2.1-0.5,3.4-0.5c1.5,0,2.9,0.2,4.1,0.6c1.2,0.4,2.2,1,3.1,1.7c0.9,0.7,1.6,1.6,2.2,2.5c0.4,0.7,0.8,1.5,1.1,2.3h-1.6
		c-0.8-1.9-1.8-3.4-3.2-4.4c-1.5-1.1-3.4-1.6-5.8-1.6c-1.5,0-2.9,0.3-4.1,1c-1.2,0.7-2.3,1.6-3.2,2.7c-0.9,1.1-1.6,2.4-2,3.9
		c-0.5,1.5-0.7,3-0.7,4.6c0,2.1,0.3,4.1,0.9,5.7c0.6,1.6,1.3,3,2.3,4c0.9,1.1,2,1.9,3.2,2.4c1.2,0.5,2.4,0.8,3.7,0.8
		c1.3,0,2.5-0.2,3.5-0.7c1-0.5,1.9-1.1,2.7-1.9c0.8-0.8,1.4-1.6,1.9-2.6c0.4-0.8,0.7-1.6,0.9-2.4h1.5c-0.3,1-0.6,2-1.1,2.9
		c-0.6,1.1-1.3,2.1-2.2,3c-0.9,0.9-2,1.5-3.2,2C445.7,313,444.3,313.2,442.8,313.2z"/>
	<g>
		<rect x="484" y="286.6" class="st3" width="1.5" height="25.8"/>
		<polygon class="st3" points="501.8,286.6 501.8,298.5 486.5,298.5 486.5,299.6 501.8,299.6 501.8,312.4 503.2,312.4 503.2,286.6 
					"/>
	</g>
</g>
<g>
	<path class="st3" d="M350.3,336.7c-13.2,20.6-35.7,32.9-60.2,32.9c-30.9,0-58.1-19.7-67.8-48.9l-1.2,0.4
		c9.9,29.8,37.6,49.8,69,49.8c24.9,0,47.8-12.5,61.2-33.5L350.3,336.7z"/>
	<path class="st3" d="M290.7,245.9c6.6,0,13,1.2,19,3.6l0.5-1.2c-6.2-2.4-12.8-3.6-19.5-3.6c-20.2,0-38.5,11.2-47.8,29.2l1.1,0.6
		C253.1,256.8,271,245.9,290.7,245.9z"/>
	<path class="st3" d="M290.1,227c7,0,13.9,1,20.5,3l0.4-1.2c-6.8-2-13.8-3.1-20.9-3.1c-32.3,0-61,21.7-69.9,52.7l1.2,0.3
		C230.1,248.2,258.3,227,290.1,227z"/>
	<path class="st3" d="M246,325.7l-1.1,0.7c9.9,16,27,25.6,45.8,25.6s35.9-9.6,45.8-25.6l-1.1-0.7c-9.6,15.7-26.4,25-44.7,25
		C272.3,350.7,255.6,341.4,246,325.7z"/>
</g>
<g>
	<rect id="_x3C_Slice_x3E_" x="56.8" y="196.5" class="st4" width="467.7" height="182.7"/>
</g>
</svg>
